# xmcd
#
# Track frame offsets: 
#        150
#        22161
#        35223
#        51094
#        68173
#        88053
#        107127
#        122612
#        145152
#        159752
#        178467
#        202263
#        227066
#        258538
#        278319
#        310664
#        331149
#
# Disc length: 4686 seconds
#
# Revision: 0
# Processed by: cddbd v1.5.2PL0 Copyright (c) Steve Scherf et al.
# Submitted via: ExactAudioCopy v1.0b3
#
DISCID=f5124c11
DTITLE=Eric Clapton - 461 Ocean Boulevard Remastered
DYEAR=1974
DGENRE=Blues
TTITLE0=Motherless Children
TTITLE1=Give Me Strength
TTITLE2=Willie And The Hand Jive
TTITLE3=Get Ready
TTITLE4=I Shot The Sheriff
TTITLE5=I Can't Hold Out
TTITLE6=Please Be With Me
TTITLE7=Let It Grow
TTITLE8=Steady Rollin' Man
TTITLE9=Mainline Florida
TTITLE10=Walkin' Down The Road
TTITLE11=Ain't That Lovin You
TTITLE12=Meet Me (Down At The Bottom)
TTITLE13=Eric After Hours Blues
TTITLE14=B Minor Jam
TTITLE15=Tears In Heaven
TTITLE16=Traveling Riverside Blues
EXTD=
EXTT0=
EXTT1=
EXTT2=
EXTT3=
EXTT4=
EXTT5=
EXTT6=
EXTT7=
EXTT8=
EXTT9=
EXTT10=
EXTT11=
EXTT12=
EXTT13=
EXTT14=
EXTT15=
EXTT16=
PLAYORDER=
